<?xml version="1.0" encoding="UTF-8" standalone="no"?>
<svg
   xmlns:dc="http://purl.org/dc/elements/1.1/"
   xmlns:cc="http://creativecommons.org/ns#"
   xmlns:rdf="http://www.w3.org/1999/02/22-rdf-syntax-ns#"
   xmlns:svg="http://www.w3.org/2000/svg"
   xmlns="http://www.w3.org/2000/svg"
   xmlns:sodipodi="http://sodipodi.sourceforge.net/DTD/sodipodi-0.dtd"
   xmlns:inkscape="http://www.inkscape.org/namespaces/inkscape"
   width="420mm"
   height="243mm"
   viewBox="0 0 420 243"
   version="1.1"
   id="svg8"
   inkscape:version="1.0.1 (3bc2e813f5, 2020-09-07)"
   sodipodi:docname="logo.svg">
  <defs
     id="defs2">
    <rect
       x="111.88095"
       y="32.505951"
       width="49.892857"
       height="71.059525"
       id="rect36" />
    <rect
       x="109.6131"
       y="51.404762"
       width="6.8035712"
       height="15.119048"
       id="rect30" />
    <rect
       x="109.6131"
       y="49.892857"
       width="11.339286"
       height="13.607143"
       id="rect24" />
    <rect
       x="108.10119"
       y="50.648811"
       width="31.75"
       height="21.166668"
       id="rect18" />
  </defs>
  <sodipodi:namedview
     id="base"
     pagecolor="#ffffff"
     bordercolor="#666666"
     borderopacity="1.0"
     inkscape:pageopacity="0.0"
     inkscape:pageshadow="2"
     inkscape:zoom="0.35"
     inkscape:cx="1082.5672"
     inkscape:cy="560"
     inkscape:document-units="mm"
     inkscape:current-layer="layer1"
     inkscape:document-rotation="0"
     showgrid="false"
     units="mm"
     width="400mm"
     inkscape:window-width="1727"
     inkscape:window-height="1040"
     inkscape:window-x="182"
     inkscape:window-y="0"
     inkscape:window-maximized="0"
     showguides="false" />
  <metadata
     id="metadata5">
    <rdf:RDF>
      <cc:Work
         rdf:about="">
        <dc:format>image/svg+xml</dc:format>
        <dc:type
           rdf:resource="http://purl.org/dc/dcmitype/StillImage" />
        <dc:title></dc:title>
      </cc:Work>
    </rdf:RDF>
  </metadata>
  <g
     inkscape:label="Capa 1"
     inkscape:groupmode="layer"
     id="layer1">
    <g
       aria-label="L
P"
       transform="matrix(1.2176125,0,0,0.82127936,-2.2678571,0.75595238)"
       id="text12"
       style="font-style:normal;font-variant:normal;font-weight:normal;font-stretch:normal;font-size:133.136px;line-height:1.25;font-family:'Segoe Script';-inkscape-font-specification:'Segoe Script, Normal';font-variant-ligatures:normal;font-variant-caps:normal;font-variant-numeric:normal;font-variant-east-asian:normal;fill:#ff0000;fill-opacity:1;stroke:none;stroke-width:0.693415">
      <path
         d="m 85.498435,101.24268 q -1.300156,1.62519 -3.315399,2.66532 -2.015242,0.97511 -3.575429,0.97511 -0.91011,0 -2.275274,0.065 -1.365164,0 -2.860344,0.065 -1.430171,0 -2.795335,0.065 -1.365165,0 -2.275274,0 -4.1605,0 -8.711047,0.71508 -4.485539,0.65008 -8.971078,1.75522 -4.485539,1.04012 -8.906071,2.21026 -4.355523,1.23515 -8.255992,2.27527 -3.900469,1.10514 -7.280875,1.75522 -3.315398,0.71508 -5.720688,0.71508 -3.900468,0 -6.110734,-1.82022 -2.145258,-1.75521 -2.275273,-4.22551 -0.130016,-1.56018 0,-3.70544 0.130015,-2.14526 0.520062,-4.68056 0.390047,-2.535308 0.910109,-5.330644 0.520063,-2.860344 1.170141,-5.785695 0.390047,-1.950235 0.975117,-5.07061 0.650078,-3.120375 1.235149,-6.500781 0.58507,-3.445414 1.105133,-6.630797 0.520062,-3.250391 0.845101,-5.330641 0.715086,-4.74557 1.300156,-8.516023 0.650079,-3.835461 1.170141,-7.345883 0.58507,-3.510422 1.105133,-7.085852 0.520062,-3.640437 0.975117,-8.125976 0.390047,-4.875586 0.520063,-8.711047 0.195023,-3.835461 0.845101,-6.435774 0.715086,-2.66532 2.210266,-4.030484 1.560187,-1.430172 4.74557,-1.430172 1.820219,0 2.99036,0.715086 1.235148,0.715086 2.015242,1.885226 0.780094,1.170141 1.17014,2.665321 0.390047,1.495179 0.520063,2.990359 0.06501,0.455055 -0.455055,2.925352 -0.455054,2.470297 -1.235148,6.175742 -0.780094,3.640437 -1.755211,8.125977 -0.975117,4.485539 -1.950235,9.101093 -0.910109,4.615555 -1.755211,8.971079 -0.780093,4.290515 -1.235148,7.540906 -0.390047,2.860344 -0.975117,6.175742 -0.520063,3.250391 -1.105133,6.630797 -0.58507,3.315399 -1.170141,6.630797 -0.58507,3.315399 -1.040125,6.24075 -0.455054,2.860344 -0.715086,5.200625 -0.195023,2.275274 -0.06501,3.640438 0.130015,1.170139 0.975117,2.145259 0.845101,0.97512 2.275273,0.97512 1.560188,0 3.900469,-0.39005 2.405289,-0.45506 5.07061,-1.10513 2.730328,-0.71509 5.525664,-1.495184 2.795336,-0.845101 5.33064,-1.560187 0.585071,-0.195024 2.210266,-0.520063 1.690203,-0.390046 3.835461,-0.845101 2.210266,-0.455055 4.680563,-0.91011 2.470296,-0.455054 4.615554,-0.845101 2.210266,-0.390047 3.900469,-0.650078 1.690203,-0.260032 2.340281,-0.260032 0.845102,0 2.340282,-0.195023 1.560187,-0.195023 3.510422,-0.325039 1.950234,-0.130016 4.225507,-0.130016 2.275274,0 4.550547,0.455055 1.170141,0.260031 1.755211,1.170141 0.585071,0.845101 0.650078,2.015242 0.06501,1.170141 -0.260031,2.340281 -0.325039,1.170145 -0.975117,2.015245 z"
         style="font-style:normal;font-variant:normal;font-weight:normal;font-stretch:normal;font-size:133.136px;font-family:'Segoe Script';-inkscape-font-specification:'Segoe Script, Normal';font-variant-ligatures:normal;font-variant-caps:normal;font-variant-numeric:normal;font-variant-east-asian:normal;fill:#ff0000;stroke-width:0.693415"
         id="path74" />
      <path
         d="m 101.62037,194.85393 q 0,2.21026 -1.885224,6.89083 -0.910109,2.27527 -1.755211,3.96547 -0.845101,1.69021 -1.690203,2.86035 -4.615555,6.56579 -15.081813,13.65164 -10.531265,7.08585 -20.997523,12.41649 -6.890829,3.57543 -13.781657,6.43577 -6.82582,2.79534 -13.781656,5.00561 -0.390047,0.52006 -0.390047,2.5353 v 2.14526 q 0,1.82022 0.195023,5.07061 0.195024,3.18538 0.520063,7.86594 0.325039,4.68057 0.520062,8.321 0.195024,3.57543 0.195024,6.30576 0,2.4703 -1.49518,3.90047 -1.49518,1.43017 -3.965477,1.43017 -7.150859,0 -7.150859,-31.00873 v -1.88522 q 0,-3.64044 0.455055,-7.86595 0.455054,-4.22551 1.235148,-10.20622 0.325039,-1.88523 0.58507,-3.90047 0.32504,-2.01525 0.650079,-4.29052 0.650078,-4.48554 1.235148,-7.73593 0.58507,-3.25039 1.430172,-6.30576 0.195023,-0.8451 0.455055,-2.01524 0.260031,-1.17014 0.58507,-2.66532 0.650078,-2.99036 1.365164,-5.26563 0.715086,-2.21027 1.820219,-4.29052 1.105133,-2.08025 2.795336,-3.90047 1.040125,-0.39004 2.275273,-0.39004 2.405289,0 3.57543,1.49518 1.235148,1.43017 1.235148,3.96547 0,0.32504 -0.520062,2.01525 -0.455055,1.62519 -1.105133,3.51042 -0.58507,1.88522 -1.170141,3.57543 -0.520062,1.6902 -0.650078,2.08025 -0.520062,1.36516 -0.975117,3.70544 -0.325039,1.88523 -0.715086,3.90047 -0.325039,1.95024 -0.715086,4.1605 -0.390047,2.14526 -0.715086,4.35552 -0.260031,2.14526 -0.455054,4.1605 -0.195024,1.95024 -0.390047,3.70545 -0.130016,1.6902 -0.195024,2.92535 2.08025,-0.91011 5.005602,-2.14526 2.990359,-1.23514 6.890828,-2.86034 7.670922,-3.18538 13.651641,-6.04573 6.045727,-2.86034 11.766414,-6.30575 3.770453,-2.27528 7.280875,-5.13562 3.57543,-2.86035 6.955836,-6.24075 6.760813,-6.89083 6.760813,-12.80654 0,-2.73033 -5.330641,-4.1605 -2.66532,-0.71509 -5.395648,-1.10513 -2.730329,-0.45506 -5.395649,-0.65008 -2.66532,-0.26003 -5.200625,-0.32504 -2.470297,-0.065 -4.615555,-0.065 -12.806539,0 -27.173266,2.79534 -6.955836,1.49518 -19.697367,5.8507 -1.49518,0.58507 -2.275274,0.58507 -1.430171,0 -2.405289,-0.8451 -0.910109,-0.91011 -0.910109,-2.34028 0,-3.18538 1.820219,-5.13562 1.885226,-1.95023 5.395648,-3.44541 3.770453,-1.6252 11.701407,-3.3154 3.965476,-0.8451 7.930953,-1.43017 4.030484,-0.65008 8.125977,-1.17014 8.190984,-0.97512 12.286476,-0.97512 3.510422,0 6.760813,0.065 3.315398,0.065 6.435773,0.32504 3.185383,0.19502 6.305758,0.71508 3.185383,0.45506 6.435774,1.23515 6.500781,1.56019 10.921312,5.07061 4.420529,3.44541 4.420529,9.23111 z"
         style="font-style:normal;font-variant:normal;font-weight:normal;font-stretch:normal;font-size:133.136px;font-family:'Segoe Script';-inkscape-font-specification:'Segoe Script, Normal';font-variant-ligatures:normal;font-variant-caps:normal;font-variant-numeric:normal;font-variant-east-asian:normal;fill:#ff0000;stroke-width:0.693415"
         id="path76" />
    </g>
    <text
       xml:space="preserve"
       id="text16"
       style="font-style:normal;font-weight:normal;font-size:10.5833px;line-height:1.25;font-family:sans-serif;white-space:pre;shape-inside:url(#rect18);fill:#000000;fill-opacity:1;stroke:none;" />
    <text
       xml:space="preserve"
       id="text22"
       style="font-style:normal;font-weight:normal;font-size:10.5833px;line-height:1.25;font-family:sans-serif;white-space:pre;shape-inside:url(#rect24);fill:#000000;fill-opacity:1;stroke:none;" />
    <text
       xml:space="preserve"
       id="text28"
       style="font-style:normal;font-weight:normal;font-size:10.5833px;line-height:1.25;font-family:sans-serif;white-space:pre;shape-inside:url(#rect30);fill:#000000;fill-opacity:1;stroke:none;" />
    <text
       xml:space="preserve"
       id="text34"
       style="font-style:normal;font-weight:normal;font-size:10.5833px;line-height:1.25;font-family:sans-serif;white-space:pre;shape-inside:url(#rect36);fill:#000000;fill-opacity:1;stroke:none;" />
    <g
       aria-label="UIS
ACHECO"
       transform="scale(0.77511664,1.2901284)"
       id="text50"
       style="font-style:normal;font-weight:normal;font-size:82.8477px;line-height:1.25;font-family:sans-serif;fill:#000000;fill-opacity:1;stroke:none;stroke-width:2.07119">
      <path
         d="m 191.22458,61.681846 q -4.57119,6.027494 -10.80095,8.69739 -6.18931,2.71035 -13.99673,2.71035 -3.84303,0 -7.36244,-1.658572 -3.51941,-1.618119 -6.22976,-4.813905 -2.6699,-3.236238 -4.28802,-8.00969 -1.57766,-4.773451 -1.57766,-11.00321 0,-1.415854 0.20226,-3.923939 0.24272,-2.508085 0.64725,-5.622964 0.40453,-3.11488 0.97087,-6.634289 0.56634,-3.559862 1.25404,-7.079271 0.6877,-3.519409 1.41586,-6.796101 0.7686,-3.276691 1.57766,-5.865682 0.44499,-1.294495 1.21359,-1.8608369 0.80906,-0.6067947 1.73948,-0.6067947 0.6877,0 1.3754,0.3640768 0.6877,0.3640768 1.21359,0.9304188 0.56634,0.566341 0.88997,1.294495 0.36407,0.687701 0.36407,1.415854 0,0.364077 -0.0404,0.525889 -0.52589,2.548538 -1.05178,5.461152 -0.52589,2.912615 -1.05177,5.865682 -0.48544,2.953068 -0.93042,5.784776 -0.44499,2.831709 -0.80906,5.177982 -0.36408,2.346273 -0.6068,4.045298 -0.24271,1.658572 -0.32362,2.30582 -0.16181,1.537213 -0.24272,2.99352 -0.0809,1.456307 -0.0809,2.750803 0,1.739478 0.16181,3.357597 0.16181,1.577666 0.48543,3.155332 0.36408,1.577667 0.93042,3.155333 0.56634,1.537213 1.41586,3.155332 0.52588,0.970872 1.41585,1.941743 0.93042,0.970872 2.0631,1.739478 1.13269,0.768607 2.42718,1.254043 1.2945,0.485435 2.54854,0.485435 2.26537,0 4.49028,-0.202264 2.26537,-0.202265 4.28802,-0.687701 2.02264,-0.525889 3.76212,-1.334948 1.77993,-0.849513 3.11488,-2.103555 1.61812,-1.173137 2.87216,-2.831709 1.25405,-1.658572 2.26537,-3.559862 1.01132,-1.90129 1.77993,-3.923939 0.80906,-2.063102 1.49676,-4.045298 0.64725,-1.820384 1.2945,-4.449828 0.64724,-2.669896 1.25404,-5.542058 0.60679,-2.872162 1.13268,-5.663417 0.52589,-2.791256 0.93042,-4.935264 0.64725,-3.276691 1.2945,-6.351117 0.6877,-3.074427 1.82038,-6.229759 0.16181,-0.40453 0.6068,-0.80906 0.48543,-0.40453 1.05177,-0.728153 0.56634,-0.323624 1.13269,-0.525889 0.60679,-0.202265 1.01132,-0.202265 0.32362,0 0.44498,0.121359 h -0.0404 q 0.93042,0.485436 1.41585,1.49676 0.48544,1.011325 0.48544,2.831709 0.0404,2.184461 -0.48544,4.449827 -0.52588,2.224914 -1.17313,4.571187 -0.6068,2.265367 -1.17314,4.854358 -0.52589,2.58899 -1.13268,5.258887 -0.56634,2.629444 -1.17314,5.177981 -0.56634,2.548538 -1.21359,4.732999 -0.28317,1.011324 -0.7686,2.427179 -0.48544,1.375401 -1.09223,2.99352 -0.56635,1.577666 -1.21359,3.236239 -0.6068,1.618119 -1.25405,3.074426 -0.60679,1.415854 -1.17313,2.548538 -0.56634,1.09223 -0.97087,1.658572 z"
         style="font-style:normal;font-variant:normal;font-weight:normal;font-stretch:normal;font-size:82.8477px;font-family:'Segoe Script';-inkscape-font-specification:'Segoe Script, Normal';font-variant-ligatures:normal;font-variant-caps:normal;font-variant-numeric:normal;font-variant-east-asian:normal;stroke-width:2.07119"
         id="path79" />
      <path
         d="m 224.67919,20.500713 q -0.0809,1.011324 -0.56634,2.953067 -0.44499,1.941743 -0.97087,4.085751 -0.48544,2.144008 -0.97088,4.126204 -0.44498,1.982196 -0.52588,3.074426 -0.12136,1.779932 -0.44499,4.045298 -0.28317,2.224914 -0.60679,4.530734 -0.32363,2.30582 -0.6068,4.449828 -0.28317,2.144008 -0.40453,3.762127 -0.0404,0.566342 -0.0404,1.456307 0,0.889966 0.0404,2.022649 0.0809,1.092231 0.16182,2.386726 0.0809,1.254042 0.20226,2.508085 0.0809,0.809059 0.20227,1.699025 0.16181,0.889965 0.28317,1.779931 0.12135,0.889966 0.16181,1.699025 0.0809,0.80906 0.0405,1.456307 -0.0809,1.051778 -0.60679,1.820384 -0.48544,0.768607 -1.21359,1.294496 -0.6877,0.485436 -1.45631,0.6877 -0.72815,0.242718 -1.33495,0.202265 -1.01132,-0.08091 -1.73948,-0.6877 -0.72815,-0.606795 -1.21359,-1.820384 -0.48543,-1.254043 -0.72815,-3.195786 -0.20226,-1.941743 -0.20226,-4.652092 0,-1.779932 0.16181,-3.843033 0.16181,-2.063102 0.40453,-4.166657 0.24271,-2.103555 0.48543,-4.085751 0.28317,-2.022649 0.52589,-3.681221 0.28317,-1.658573 0.44498,-2.872162 0.20227,-1.213589 0.24272,-1.699025 0.0809,-1.375401 0.16181,-2.588991 0.12136,-1.213589 0.24272,-2.629443 0.16181,-1.941743 0.44498,-3.762128 0.32363,-1.860837 0.68771,-3.681221 0.36407,-1.860837 0.72815,-3.721674 0.40453,-1.860837 0.64725,-3.883486 0.16181,-0.930418 0.28317,-1.90129 0.12136,-1.011324 0.28317,-1.860837 0.16181,-0.889965 0.32362,-1.577666 0.20227,-0.687701 0.52589,-1.051778 0.32362,-0.404529 0.93042,-0.647247 0.60679,-0.242718 1.29449,-0.323624 0.68771,-0.121359 1.33495,-0.121359 0.64725,-0.04045 1.01133,0 0.52589,0.04045 0.84951,0.525889 0.32362,0.444982 0.48544,1.456307 0.20226,0.970871 0.20226,2.548538 0,1.577666 -0.16181,3.883486 z"
         style="font-style:normal;font-variant:normal;font-weight:normal;font-stretch:normal;font-size:82.8477px;font-family:'Segoe Script';-inkscape-font-specification:'Segoe Script, Normal';font-variant-ligatures:normal;font-variant-caps:normal;font-variant-numeric:normal;font-variant-east-asian:normal;stroke-width:2.07119"
         id="path81" />
      <path
         d="m 279.00754,18.639876 q 0,0.525888 -0.12136,1.294495 -0.12136,0.768607 -0.36408,1.577666 -0.20226,0.768607 -0.52589,1.49676 -0.28317,0.687701 -0.64724,1.092231 -0.97088,1.173136 -3.47896,1.173136 0,-2.750802 -0.76861,-4.571186 -0.36407,-0.849513 -1.33495,-1.415855 -0.93041,-0.606794 -2.10355,-1.011324 -1.17314,-0.40453 -2.38673,-0.566342 -1.17313,-0.202265 -2.02265,-0.202265 -1.94174,0 -3.76212,0.08091 -1.77993,0.08091 -3.51941,0.364077 -1.69903,0.242718 -3.47896,0.728154 -1.73948,0.444982 -3.64077,1.213589 -1.4563,0.606795 -3.03397,1.456307 -1.57767,0.80906 -2.91261,1.860837 -1.33495,1.051778 -2.30582,2.30582 -0.97088,1.254043 -1.21359,2.750803 -0.0809,1.132683 0.6877,2.58899 0.7686,1.456308 2.0631,2.831709 1.33495,1.375401 3.03397,2.508085 1.73948,1.132683 3.60032,1.658572 0.32362,0.121359 1.49676,0.525889 1.17313,0.404529 2.50808,0.849512 1.3754,0.444983 2.50809,0.849513 1.17313,0.364077 1.49676,0.444983 9.14237,2.346272 13.55175,5.582511 4.44982,3.195785 4.44982,7.847878 0,1.49676 -0.6877,2.99352 -0.64724,1.456307 -1.65857,2.831709 -1.01132,1.334948 -2.18446,2.467632 -1.17314,1.132683 -2.18446,1.90129 -1.17314,0.930418 -2.6699,1.941743 -1.49676,0.970871 -3.19578,1.90129 -1.69903,0.930418 -3.51941,1.739478 -1.82039,0.809059 -3.68122,1.415854 -1.82039,0.606795 -3.84304,1.09223 -1.98219,0.525889 -3.96439,0.889966 -1.94174,0.364077 -3.76213,0.566342 -1.77993,0.242718 -3.19578,0.242718 -1.05178,0 -2.7508,-0.323624 -1.65858,-0.283171 -3.27669,-0.849513 -1.61812,-0.525889 -2.79126,-1.294495 -1.13268,-0.728154 -1.13268,-1.577666 0,-0.525889 0.12136,-1.294496 0.16181,-0.768606 0.40453,-1.49676 0.28317,-0.728154 0.60679,-1.213589 0.36408,-0.525889 0.80906,-0.525889 0.80906,0 1.65857,0.283171 0.88997,0.242718 2.0631,0.566342 1.21359,0.323623 2.83171,0.606794 1.65857,0.242718 4.00485,0.242718 2.42718,0 5.01617,-0.485436 2.62944,-0.525888 5.13752,-1.375401 2.50809,-0.849513 4.77346,-1.941743 2.30582,-1.09223 4.1262,-2.265367 0.84951,-0.566342 1.86084,-1.294495 1.05177,-0.768607 1.94174,-1.658572 0.88997,-0.889966 1.49676,-1.90129 0.6068,-1.011325 0.6068,-2.103555 0,-1.537214 -2.26537,-2.953068 -2.22492,-1.375401 -4.57119,-2.144008 -2.30582,-0.768606 -4.1262,-1.213589 -2.22492,-0.566342 -5.01617,-1.49676 -2.7508,-0.930419 -6.06795,-2.224914 -5.5016,-2.103555 -9.30418,-6.148853 -3.80258,-4.045298 -3.80258,-9.749168 -0.0809,-2.669897 1.61812,-5.137529 1.73947,-2.467631 4.65209,-4.571186 2.91261,-2.103555 6.63429,-3.721674 3.76212,-1.658573 7.72652,-2.588991 0.80906,-0.161812 1.94174,-0.364077 1.17314,-0.202265 2.38672,-0.323624 1.25405,-0.161812 2.38673,-0.242718 1.17314,-0.121359 1.9822,-0.121359 0.97087,0 2.42718,0.161812 1.49676,0.121359 3.03397,0.364077 1.57766,0.242718 2.95307,0.606795 1.41585,0.364077 2.26536,0.849512 2.0631,1.092231 3.23624,2.629444 1.17314,1.537213 1.17314,2.993521 z"
         style="font-style:normal;font-variant:normal;font-weight:normal;font-stretch:normal;font-size:82.8477px;font-family:'Segoe Script';-inkscape-font-specification:'Segoe Script, Normal';font-variant-ligatures:normal;font-variant-caps:normal;font-variant-numeric:normal;font-variant-east-asian:normal;stroke-width:2.07119"
         id="path83" />
      <path
         d="m 208.17437,171.2628 q 0,1.61812 -1.05177,2.7508 -1.01133,1.17314 -2.6699,1.17314 -0.72815,0 -1.17314,-0.32363 -0.56634,-0.44498 -1.25404,-1.17313 -0.6877,-0.76861 -1.45631,-1.90129 -1.49676,-2.30582 -2.7508,-4.81391 -1.21359,-2.54853 -1.98219,-4.49028 -0.20227,-0.56634 -0.44499,-1.01132 -0.20226,-0.48544 -0.44498,-0.97087 -0.20226,-0.52589 -0.44498,-1.09223 -0.24272,-0.6068 -0.52589,-1.45631 -1.17314,-3.47896 -1.69903,-4.57119 -0.56634,0.56634 -1.09223,0.88997 -0.52589,0.28317 -1.13268,0.44498 -0.56634,0.12136 -1.21359,0.16181 -0.60679,0 -1.33495,0 -0.40453,0 -1.01132,0.16181 -0.6068,0.16182 -1.33495,0.36408 -0.6877,0.20227 -1.3754,0.44498 -0.6877,0.24272 -1.2945,0.40453 -2.02265,0.56635 -4.08575,1.01133 -2.0631,0.44498 -4.24756,0.88996 -2.18446,0.40453 -4.57119,0.80906 -2.38672,0.36408 -5.05662,0.80906 -1.21359,0.20227 -2.30582,1.57767 -1.05178,1.41585 -4.36892,6.06795 -3.23624,4.61164 -5.50161,6.75564 -2.22491,2.14401 -4.32847,2.14401 -2.66989,0 -4.44982,-1.05178 -2.02265,-1.29449 -2.02265,-2.7508 0,-0.76861 0.84951,-1.09223 0.88997,-0.36408 2.38673,-0.64725 0.48543,-0.0404 2.22491,-1.98219 1.65857,-1.86084 2.50808,-3.07443 1.69903,-2.22491 3.43851,-4.733 1.77993,-2.54854 3.96439,-5.70387 1.05178,-1.61812 1.86084,-2.79125 0.80906,-1.17314 1.33494,-1.9822 0.56635,-0.80906 1.25405,-1.82038 0.72815,-1.01133 1.65857,-2.26537 0.40453,-0.56634 0.97087,-1.3754 0.56634,-0.80906 1.33495,-1.82039 0.76861,-1.05177 1.3754,-1.86083 0.64725,-0.80906 1.09223,-1.45631 0.48544,-0.64725 1.21359,-1.61812 0.76861,-0.97087 1.77993,-2.30582 0.32363,-0.40453 1.25404,-1.90129 0.97088,-1.49676 2.58899,-4.1262 2.26537,-3.76213 2.95307,-5.50161 4.733,-11.48864 7.11973,-11.48864 1.05177,0 1.69902,0.20226 0.64725,0.16181 1.01133,0.6068 0.36407,0.40453 0.48543,1.13268 0.12136,0.6877 0.12136,1.69902 0,0.6877 0,1.21359 0,0.52589 -0.0404,0.84952 -0.0405,0.64724 -0.0809,1.65857 -0.0404,1.01132 -0.12136,2.38672 2.02265,4.24757 3.84304,9.14238 0.93041,2.46763 1.94174,5.4207 1.05178,2.91261 2.22491,6.43202 1.17314,3.47896 2.0631,5.94659 0.88997,2.46763 1.45631,4.00484 0.56634,1.53722 1.33495,3.51941 0.80906,1.9822 1.90129,4.49028 0.40453,0.93042 3.03397,4.49028 2.58899,3.55987 2.58899,5.09708 z M 190.2537,147.35509 q -0.72815,-2.22492 -1.57766,-4.77345 -0.84951,-2.58899 -1.77993,-5.13753 -0.88997,-2.58899 -1.86084,-4.97572 -0.93042,-2.38672 -1.86084,-4.24756 -2.26536,3.07443 -4.28801,5.90613 -2.02265,2.83171 -3.92394,5.70387 -1.86084,2.83171 -3.72168,5.82523 -1.82038,2.99352 -3.72167,6.39157 0.44498,0.16182 0.80906,0.16182 0.60679,0 1.53721,-0.0809 0.97087,-0.12136 1.94175,-0.24272 1.01132,-0.16181 1.90129,-0.32362 0.93041,-0.16181 1.49676,-0.28317 0.97087,-0.24272 1.65857,-0.40453 0.72815,-0.16181 1.3754,-0.32363 0.64725,-0.16181 1.3754,-0.32362 0.76861,-0.20227 1.82039,-0.44498 2.34627,-0.6068 4.65209,-1.21359 2.30582,-0.64725 4.16665,-1.21359 z"
         style="font-style:normal;font-variant:normal;font-weight:normal;font-stretch:normal;font-size:82.8477px;font-family:'Segoe Script';-inkscape-font-specification:'Segoe Script, Normal';font-variant-ligatures:normal;font-variant-caps:normal;font-variant-numeric:normal;font-variant-east-asian:normal;stroke-width:2.07119"
         id="path85" />
      <path
         d="m 266.30531,121.50563 q 0,0.68771 0,1.77994 0.0404,1.09223 0,2.26536 -0.0405,1.17314 -0.20227,2.22492 -0.16181,1.05177 -0.56634,1.65857 -0.40453,0.60679 -1.01132,1.21359 -0.6068,0.60679 -1.2945,1.09223 -0.6877,0.48543 -1.3754,0.7686 -0.64725,0.28318 -1.17314,0.28318 -0.56634,0 -1.05177,-0.32363 -0.48544,-0.32362 -0.80906,-0.88996 -0.28318,-0.6068 -0.36408,-1.41586 -0.0404,-0.84951 0.20226,-1.82038 1.33495,-5.25889 1.25405,-8.05014 -0.0405,-2.83171 -1.65858,-2.83171 -1.77993,0 -4.1262,0.72815 -2.30582,0.6877 -4.77345,1.90129 -2.42718,1.17314 -4.77345,2.7508 -2.30582,1.57767 -4.12621,3.31715 -3.51941,3.31714 -6.51293,7.28153 -2.95306,3.9644 -5.13752,8.21196 -2.14401,4.20711 -3.3576,8.45467 -1.21359,4.24756 -1.21359,8.1715 0,1.13269 0.20226,2.54854 0.20227,1.3754 0.6877,2.83171 0.52589,1.41585 1.41586,2.7508 0.88996,1.33495 2.22491,2.38673 1.3754,1.05177 3.27669,1.69902 1.90129,0.64725 4.40938,0.64725 2.58899,0 5.5016,-0.6877 2.91262,-0.6877 5.86569,-1.82038 2.95306,-1.17314 5.82522,-2.71035 2.87217,-1.53722 5.4207,-3.23624 2.34628,-1.53722 3.68122,-2.42718 1.33495,-0.88997 1.69903,-0.93042 h 0.0809 q 0.36407,0 0.64724,0.28317 0.32363,0.24272 0.48544,0.6068 0.20226,0.36407 0.28317,0.7686 0.12136,0.36408 0.12136,0.64725 0,0.60679 -0.52589,1.45631 -0.52589,0.80906 -1.29449,1.69902 -0.76861,0.88997 -1.69903,1.73948 -0.93042,0.80906 -1.69903,1.41585 -2.54853,1.94175 -5.70387,3.72168 -3.15533,1.73948 -6.55338,3.07443 -3.39805,1.33494 -6.83655,2.10355 -3.4385,0.80906 -6.55338,0.80906 -0.93042,0 -2.62945,-0.28317 -1.69902,-0.28317 -3.72167,-1.05178 -2.02265,-0.72815 -4.16666,-2.0631 -2.10355,-1.2945 -3.84303,-3.31714 -1.69903,-2.06311 -2.79126,-4.93527 -1.09223,-2.91261 -1.09223,-6.7961 0,-8.81875 4.16666,-17.47569 4.20711,-8.69739 11.89317,-16.78798 2.18447,-2.30582 5.01617,-4.61164 2.83171,-2.34627 5.94659,-4.20711 3.15533,-1.90129 6.31067,-3.07443 3.19578,-1.17313 6.02749,-1.17313 2.6699,0 4.53073,1.01132 1.90129,0.97087 3.11488,2.42718 1.21359,1.45631 1.77994,3.15533 0.56634,1.65857 0.56634,3.03397 z"
         style="font-style:normal;font-variant:normal;font-weight:normal;font-stretch:normal;font-size:82.8477px;font-family:'Segoe Script';-inkscape-font-specification:'Segoe Script, Normal';font-variant-ligatures:normal;font-variant-caps:normal;font-variant-numeric:normal;font-variant-east-asian:normal;stroke-width:2.07119"
         id="path87" />
      <path
         d="m 335.23718,111.10922 q 0.0809,1.45631 -0.24271,3.64077 -0.28317,2.144 -0.80906,4.93526 -0.48544,2.7508 -1.13269,5.98704 -0.64724,3.19579 -1.29449,6.75565 -0.6068,3.51941 -1.13269,7.28154 -0.52588,3.72167 -0.80906,7.4838 -0.0405,0.28317 -0.16181,1.61812 -0.0809,1.33494 -0.24271,3.31714 -0.12136,1.94174 -0.28318,4.36892 -0.16181,2.38673 -0.28317,4.85436 -0.12136,2.46763 -0.20226,4.85436 -0.0405,2.34627 0.0405,4.16665 0.0404,1.05178 -0.52589,2.02265 -0.52589,0.97087 -1.33495,1.73948 -0.7686,0.80906 -1.61811,1.25404 -0.80906,0.48544 -1.37541,0.48544 -0.48543,0 -1.09223,-0.24272 -0.60679,-0.20226 -1.17313,-0.64725 -0.52589,-0.40453 -0.93042,-1.05177 -0.36408,-0.6877 -0.44498,-1.53722 -0.0405,-0.64725 0.12135,-2.22491 0.16182,-1.61812 0.44499,-3.76213 0.28317,-2.14401 0.60679,-4.57118 0.36408,-2.46764 0.6068,-4.77346 0.28317,-2.30582 0.40453,-4.28801 0.12136,-1.9822 0.0405,-3.19579 -0.0809,-0.97087 -0.76861,-1.45631 -0.6877,-0.52588 -1.65857,-0.52588 -1.29449,0 -3.4385,0.16181 -2.10356,0.16181 -4.40938,0.36407 -2.26536,0.16182 -4.40937,0.32363 -2.14401,0.12136 -3.51941,0.12136 -0.28317,0 -1.53721,0.0809 -1.25405,0.0405 -2.99352,0.16182 -1.73948,0.12135 -3.68123,0.28317 -1.94174,0.12136 -3.68122,0.28317 -1.69902,0.16181 -2.95306,0.36407 -1.21359,0.16182 -1.45631,0.28317 -0.24272,0.16182 -0.52589,1.01133 -0.24272,0.80906 -0.48544,2.02265 -0.24271,1.17313 -0.48543,2.6699 -0.20227,1.4563 -0.40453,2.91261 -0.16181,1.41585 -0.28317,2.7508 -0.12136,1.2945 -0.16181,2.18446 -0.0809,2.38673 -0.16182,4.733 -0.0809,2.30582 -0.44498,4.12621 -0.36408,1.82038 -1.17314,2.95306 -0.7686,1.13269 -2.22491,1.13269 -0.52589,0 -1.29449,-0.56635 -0.76861,-0.52588 -1.49677,-1.33494 -0.6877,-0.80906 -1.21358,-1.69903 -0.52589,-0.88996 -0.56635,-1.61812 -0.0809,-0.7686 0.0809,-1.77993 0.16181,-1.01132 0.40453,-2.0631 0.24272,-1.05178 0.48544,-2.02265 0.24271,-0.97087 0.36407,-1.65857 0.56634,-2.62945 1.13269,-6.0275 0.60679,-3.4385 1.17313,-7.36244 0.56634,-3.96439 1.13269,-8.29286 0.56634,-4.32847 1.09223,-8.7783 0.52588,-4.49028 1.01132,-8.9401 0.48544,-4.44983 0.93042,-8.65694 0.0404,-0.48544 0.32362,-1.01133 0.28317,-0.56634 0.72816,-0.97087 0.48543,-0.44498 1.09223,-0.64725 0.64724,-0.24271 1.33494,-0.12135 1.94175,0.36407 2.87217,1.29449 0.93042,0.88997 1.09223,2.50809 0.24271,2.79125 -0.28317,5.98704 -0.52589,3.15533 -1.25405,6.39157 -0.6877,3.23624 -1.29449,6.39157 -0.56634,3.15533 -0.44498,5.94659 0.0405,0.56634 0.56634,0.88996 0.52589,0.28317 1.25404,0.44498 0.72815,0.16182 1.49676,0.20227 0.76861,0.0404 1.33495,0.0404 0.84951,0 3.23624,-0.0809 2.42718,-0.0809 5.58251,-0.24272 3.19578,-0.20227 6.67474,-0.48544 3.51941,-0.32362 6.55338,-0.72815 3.03398,-0.44498 5.13753,-1.01133 2.14401,-0.56634 2.58899,-1.29449 0.28317,-0.44498 0.6068,-1.82038 0.36407,-1.41586 0.72815,-3.51941 0.40453,-2.10356 0.76861,-4.733 0.36407,-2.6699 0.64724,-5.62297 0.32363,-2.95306 0.48544,-6.02749 0.20226,-3.11488 0.20226,-6.1084 0,-0.36408 0.32363,-0.93042 0.36408,-0.56634 0.93042,-1.09223 0.60679,-0.52589 1.33495,-0.88996 0.7686,-0.40453 1.61811,-0.40453 0.56635,0 1.25405,0.20226 0.72815,0.16181 1.3754,0.52589 0.64725,0.36408 1.09223,0.93042 0.44498,0.56634 0.48543,1.3754 z"
         style="font-style:normal;font-variant:normal;font-weight:normal;font-stretch:normal;font-size:82.8477px;font-family:'Segoe Script';-inkscape-font-specification:'Segoe Script, Normal';font-variant-ligatures:normal;font-variant-caps:normal;font-variant-numeric:normal;font-variant-east-asian:normal;stroke-width:2.07119"
         id="path89" />
      <path
         d="m 402.06552,116.40856 q 0,0.36408 -0.20227,0.88996 -0.16181,0.52589 -0.44498,1.09224 -0.24272,0.52588 -0.6068,1.01132 -0.32362,0.44498 -0.6877,0.60679 -1.13268,0.52589 -2.0631,0.80906 -0.88996,0.24272 -2.14401,0.48544 -3.84303,0.72815 -7.52425,1.25404 -3.64077,0.48544 -6.91746,0.80906 -3.23624,0.28317 -5.94659,0.40453 -2.71035,0.12136 -4.61164,0.12136 -1.05178,0 -1.86083,0 -0.76861,0 -1.49677,0.0405 -0.72815,0 -1.41585,0.0405 -0.6877,0 -1.45631,0 -1.82038,0 -3.15533,-0.0405 -1.29449,-0.0405 -2.22491,-0.12136 -0.6068,1.41586 -0.84952,3.47896 -0.24271,2.0631 -0.36407,4.28802 -0.12136,2.18446 -0.20227,4.28801 -0.0404,2.10356 -0.24272,3.68122 0.80906,0.56635 1.37541,0.88997 0.60679,0.28317 1.17313,0.44498 0.6068,0.12136 1.25404,0.16181 0.64725,0 1.57767,0 1.01133,0 2.22491,0 1.25405,0 2.46764,-0.0404 1.25404,-0.0809 2.42718,-0.16181 1.17313,-0.12136 2.10355,-0.36408 1.57767,-0.40453 2.79126,-0.44498 1.21359,-0.0404 2.34627,-0.0404 1.17314,0 2.34627,-0.12136 1.17314,-0.16181 2.62945,-0.72816 1.05177,-0.40453 1.90129,-0.7686 0.84951,-0.36408 1.61811,-0.6068 0.76861,-0.24272 1.45631,-0.36407 0.72816,-0.16182 1.53721,-0.16182 0.64725,0 1.09224,0.48544 0.44498,0.44498 0.6877,1.17314 0.24271,0.6877 0.32362,1.57766 0.12136,0.84951 0.12136,1.65857 0,0.88997 -0.64725,1.49676 -0.64725,0.6068 -1.53721,1.01133 -0.84951,0.40453 -1.73948,0.64725 -0.88997,0.24271 -1.41585,0.36407 -0.93042,0.20227 -2.46764,0.32363 -1.49676,0.12136 -3.15533,0.24271 -1.65857,0.0809 -3.23624,0.16182 -1.53721,0.0404 -2.54853,0.16181 -2.79126,0.32362 -5.82523,0.48543 -3.03398,0.12136 -6.14886,0.12136 -1.57766,0 -2.71035,0.20227 -1.09223,0.20226 -2.46763,0.60679 -0.28317,0.0809 -0.60679,1.09223 -0.32363,0.97087 -0.6877,2.46764 -0.36408,1.49676 -0.76861,3.27669 -0.36408,1.77993 -0.72815,3.39805 -0.56635,2.46763 -0.84952,4.49028 -0.24271,2.02265 -0.32362,2.87216 0.24272,0.24272 0.60679,0.52589 0.36408,0.28317 0.80906,0.28317 1.05178,0 2.50809,0 1.49676,-0.0404 3.07443,-0.0809 1.57766,-0.0404 3.07442,-0.0809 1.49676,-0.0809 2.58899,-0.16182 2.6699,-0.24271 5.58251,-0.48543 2.91262,-0.28317 5.66342,-0.6068 2.7508,-0.32362 5.17798,-0.6877 2.46763,-0.40453 4.24757,-0.88996 -0.0405,0 0.52588,-0.16181 0.6068,-0.16182 1.53722,-0.40453 0.93042,-0.28317 2.02265,-0.56635 1.09223,-0.32362 2.02265,-0.56634 0.93041,-0.24271 1.53721,-0.40453 0.64725,-0.20226 0.60679,-0.20226 0.6068,0 1.17314,0.32362 0.56634,0.32363 1.01132,0.88997 0.44499,0.52589 0.6877,1.25404 0.28318,0.72815 0.28318,1.57767 0,0.32362 -0.32363,0.93041 -0.32362,0.56635 -0.88996,1.17314 -0.56635,0.6068 -1.33495,1.13268 -0.72816,0.52589 -1.61812,0.68771 -2.02265,0.36407 -3.84303,0.6877 -1.77994,0.28317 -3.68123,0.52588 -1.86083,0.24272 -3.96439,0.48544 -2.10355,0.20227 -4.69254,0.44498 -3.11488,0.32363 -6.27022,0.6877 -3.11487,0.32363 -5.86568,0.6877 -2.71035,0.36408 -4.85435,0.68771 -2.10356,0.28317 -3.11488,0.48543 -0.93042,0.20227 -2.06311,0.48544 -1.13268,0.32362 -2.26536,0.60679 -1.09223,0.28317 -2.0631,0.48544 -0.97088,0.24272 -1.57767,0.24272 -1.09223,0 -1.94174,-0.32363 -0.84952,-0.28317 -1.41586,-1.05178 -0.56634,-0.7686 -0.84951,-2.0631 -0.28317,-1.29449 -0.28317,-3.27669 0,-1.73948 0.48543,-3.84303 0.48544,-2.14401 1.17314,-5.21844 0.44498,-2.50808 1.01132,-4.97571 0.56635,-2.50809 1.05178,-4.97572 0.52589,-2.50808 0.84951,-4.97572 0.36408,-2.50808 0.40453,-5.05662 0.0405,-1.82038 0.24272,-3.68122 0.24272,-1.86084 0.44499,-3.76213 0.24271,-1.90129 0.40453,-3.80258 0.20226,-1.90129 0.20226,-3.72167 0,-0.32363 -0.0809,-0.88997 -0.0809,-0.56634 -0.0809,-0.84951 0,-1.73948 1.25404,-3.84303 0.32362,-0.52589 1.05178,-1.09223 0.7686,-0.56634 1.65857,-1.01133 0.93042,-0.48543 1.82038,-0.7686 0.88997,-0.28317 1.53722,-0.28317 0.40453,0 1.3754,0.16181 1.01132,0.16181 2.10355,0.40453 1.09223,0.20226 2.06311,0.36407 1.01132,0.16182 1.41585,0.16182 0.6877,0 1.82038,0.0404 1.17314,0 2.50809,0.0405 1.3754,0 2.87216,0 1.49676,0 2.83171,-0.0809 3.07443,-0.16182 5.82523,-0.36408 2.79125,-0.20227 5.82523,-0.72815 1.82038,-0.28318 3.35759,-0.76861 1.53722,-0.48544 2.95307,-0.88997 1.41586,-0.44498 2.79126,-0.7686 1.41585,-0.32363 2.87216,-0.32363 0.52589,0 1.05178,0.28317 0.52588,0.24272 0.93041,0.6877 0.44499,0.40453 0.68771,0.97088 0.28317,0.56634 0.28317,1.13268 z"
         style="font-style:normal;font-variant:normal;font-weight:normal;font-stretch:normal;font-size:82.8477px;font-family:'Segoe Script';-inkscape-font-specification:'Segoe Script, Normal';font-variant-ligatures:normal;font-variant-caps:normal;font-variant-numeric:normal;font-variant-east-asian:normal;stroke-width:2.07119"
         id="path91" />
      <path
         d="m 470.26924,147.84052 q 0,2.50809 -3.43851,6.18931 -0.84951,0.93042 -2.10355,2.0631 -1.21359,1.13269 -2.58899,2.30582 -1.3754,1.13269 -2.79126,2.26537 -1.3754,1.13268 -2.58899,2.0631 -3.88349,2.99352 -8.13105,5.66342 -4.24756,2.66989 -8.57603,4.69254 -4.32847,2.02265 -8.65694,3.19579 -4.28801,1.17314 -8.29286,1.17314 -4.36892,0 -7.60516,-1.25405 -3.23624,-1.25404 -5.38024,-3.55986 -2.10356,-2.30582 -3.15534,-5.54206 -1.05177,-3.27669 -1.05177,-7.28153 -0.0405,-3.64077 0.72815,-7.4029 0.80906,-3.76213 2.22491,-7.40289 1.41586,-3.64077 3.39805,-6.99837 1.9822,-3.39805 4.32847,-6.27021 1.41586,-1.73948 3.19579,-3.51941 1.77993,-1.82039 3.72167,-3.51941 1.9822,-1.69903 4.00485,-3.15533 2.02265,-1.49676 3.96439,-2.62945 1.25404,-0.72815 3.19578,-1.69902 1.94175,-0.97087 4.08575,-1.82039 2.14401,-0.84951 4.24757,-1.41585 2.10355,-0.60679 3.64077,-0.60679 2.46763,0 3.92393,0.36407 1.49677,0.32363 2.62945,1.13269 0.52589,0.40453 1.21359,1.25404 0.72815,0.80906 1.33495,1.82038 0.64724,0.97087 1.05177,1.9822 0.44499,0.97087 0.44499,1.65857 0,0.6877 -0.64725,2.0631 -0.64725,1.3754 -1.49676,2.87216 -0.84951,1.45631 -1.69903,2.75081 -0.84951,1.25404 -1.29449,1.73947 -1.65857,1.82039 -3.55986,1.82039 -1.61812,0 -2.54854,-0.97087 -0.88997,-1.01133 -0.88997,-2.50809 0,-0.52589 0.6068,-1.61812 0.60679,-1.13268 2.02265,-2.54853 1.41585,-1.41586 2.18446,-2.589 0.80906,-1.21358 1.01132,-1.61811 -0.80906,-0.56635 -1.98219,-0.88997 -1.17314,-0.32362 -2.18447,-0.32362 -1.4563,0 -3.60031,0.6877 -2.14401,0.64724 -4.40938,1.69902 -2.22491,1.05178 -4.36892,2.34627 -2.10355,1.25405 -3.55986,2.42718 -4.16666,3.43851 -7.68607,7.4029 -3.5194,3.96439 -5.82522,8.7783 -0.93042,1.98219 -1.77994,4.16665 -0.80905,2.14401 -1.41585,4.36892 -0.60679,2.22492 -0.97087,4.44983 -0.32362,2.18446 -0.32362,4.20711 0,2.38673 0.52588,4.44983 0.56635,2.0631 1.82039,3.55986 1.25404,1.49676 3.27669,2.34627 2.0631,0.84952 5.05662,0.84952 3.23624,0 6.63429,-0.88997 3.39805,-0.88996 6.75565,-2.38672 3.39805,-1.53722 6.71519,-3.47896 3.31715,-1.9822 6.35112,-4.1262 3.07443,-2.14401 5.82523,-4.28802 2.7508,-2.14401 5.01617,-4.0453 0.93042,-0.7686 1.94174,-1.69902 1.05178,-0.93042 2.0631,-1.86084 1.01133,-0.93042 1.94175,-1.86084 0.97087,-0.93042 1.69902,-1.69902 1.82039,0.93042 1.82039,2.66989 z"
         style="font-style:normal;font-variant:normal;font-weight:normal;font-stretch:normal;font-size:82.8477px;font-family:'Segoe Script';-inkscape-font-specification:'Segoe Script, Normal';font-variant-ligatures:normal;font-variant-caps:normal;font-variant-numeric:normal;font-variant-east-asian:normal;stroke-width:2.07119"
         id="path93" />
      <path
         d="m 500.89213,120.61567 q -2.99352,0 -5.62297,1.13268 -2.58899,1.13269 -4.89481,2.99352 -2.30582,1.86084 -4.36892,4.20711 -2.02265,2.34628 -3.88349,4.77345 -1.65857,2.14401 -3.19578,4.85436 -1.49676,2.6699 -2.6699,5.66342 -1.17313,2.95307 -1.90129,6.14885 -0.6877,3.15533 -0.6877,6.31067 0,2.99352 1.01133,5.46115 1.01132,2.42718 2.62944,4.16666 1.65857,1.73947 3.76213,2.71035 2.144,0.97087 4.40937,0.97087 3.3576,0 6.51293,-0.88997 3.19579,-0.93042 6.1084,-2.50808 2.91262,-1.61812 5.50161,-3.72168 2.58899,-2.14401 4.77345,-4.61164 2.22491,-2.46763 3.92394,-5.13753 1.73948,-2.66989 2.95306,-5.29934 0.56635,-1.25404 1.01133,-2.91261 0.48543,-1.65857 0.76861,-3.47896 0.32362,-1.82038 0.48543,-3.68122 0.20227,-1.86083 0.24272,-3.51941 0.0404,-1.65857 -0.0809,-2.95306 -0.0809,-1.2945 -0.32362,-2.02265 -0.44498,-1.25405 -1.69903,-2.75081 -1.25404,-1.53721 -3.31714,-2.8317 -2.0631,-1.2945 -4.93526,-2.18447 -2.83171,-0.88996 -6.51293,-0.88996 z m 24.83813,15.81711 q 0,2.62945 -0.80906,5.82523 -0.76861,3.15534 -2.26537,6.51293 -1.49676,3.31715 -3.68122,6.63429 -2.18446,3.31715 -4.93526,6.18931 -4.40938,4.61164 -8.13105,7.5647 -3.68122,2.95307 -7.32199,4.6521 -3.60032,1.69902 -7.4029,2.34627 -3.80258,0.6877 -8.37377,0.6877 -2.30581,0 -4.44982,-0.88997 -2.10356,-0.84951 -3.96439,-2.30581 -1.82039,-1.49677 -3.31715,-3.47896 -1.49676,-1.9822 -2.58899,-4.16666 -1.05178,-2.18446 -1.65857,-4.49028 -0.56634,-2.30582 -0.56634,-4.44983 0,-3.88348 1.13268,-8.49512 1.13268,-4.61164 3.23624,-9.26373 2.14401,-4.6521 5.17798,-8.98057 3.03397,-4.36892 6.7961,-7.68606 3.76213,-3.3576 8.1715,-5.38025 4.44983,-2.02265 9.38509,-2.02265 0.88997,0 2.18446,0.0405 1.2945,0 2.83171,0.12135 1.53722,0.12136 3.23624,0.36408 1.69903,0.20227 3.31715,0.64725 1.65857,0.40453 3.15533,1.05178 1.53721,0.60679 2.71035,1.49676 2.83171,2.144 4.44983,4.1262 1.61811,1.94174 2.42717,4.00485 0.84952,2.0631 1.05178,4.36892 0.20227,2.26536 0.20227,4.97571 z"
         style="font-style:normal;font-variant:normal;font-weight:normal;font-stretch:normal;font-size:82.8477px;font-family:'Segoe Script';-inkscape-font-specification:'Segoe Script, Normal';font-variant-ligatures:normal;font-variant-caps:normal;font-variant-numeric:normal;font-variant-east-asian:normal;stroke-width:2.07119"
         id="path95" />
    </g>
    <path
       id="path58"
       style="fill:#ff0000;stroke-width:0.264583"
       inkscape:transform-center-x="4.9955066"
       inkscape:transform-center-y="2.6689349"
       transform="matrix(1.0832463,0,0,0.91769439,-20.477929,0.86070667)"
       d="m 391.28675,118.82436 -42.61236,16.85888 -40.34683,21.72942 -29.20168,-35.31708 -33.13377,-31.657358 24.56472,-38.686029 19.86904,-41.294744 44.38352,11.407799 45.41351,6.135802 2.8658,45.736435 z" />
    <path
       id="path62"
       style="fill:#000000;stroke-width:0.264583"
       inkscape:transform-center-x="-4.413414"
       inkscape:transform-center-y="-1.6640362"
       transform="matrix(0.96488358,0.1965766,-0.23694542,0.83425802,29.193855,-63.771695)"
       d="m 372.25251,140.71562 -37.798,-1.64375 -37.73069,2.79056 -10.11693,-36.45599 -14.3134,-35.021685 31.5454,-20.887294 28.88452,-24.435147 29.61306,23.546932 32.16502,19.919934 -13.24353,35.4401 z" />
    <path
       id="path66"
       style="fill:#ff0000;stroke-width:0.244257"
       d="M 303.06508,59.529267 A 31.749998,33.639881 0 0 1 346.58146,47.816771 31.749998,33.639881 0 0 1 357.6413,93.921979 31.749998,33.639881 0 0 1 314.12763,105.64579 31.749998,33.639881 0 0 1 303.05711,59.543464 l 27.29409,17.185708 z" />
    <path
       id="path68"
       style="fill:#ff0000;stroke-width:0.264583"
       d="m 346.49188,88.24464 a 1.8898809,1.1339285 0 0 1 2.59026,-0.394807 1.8898809,1.1339285 0 0 1 0.65833,1.554108 1.8898809,1.1339285 0 0 1 -2.5901,0.395186 1.8898809,1.1339285 0 0 1 -0.65896,-1.554011 l 1.62465,0.579293 z" />
    <path
       id="path70"
       style="fill:#000000;stroke-width:0.264583"
       d="m 331.48579,79.543125 a 8.0701065,5.7579722 0 0 1 11.06085,-2.004786 8.0701065,5.7579722 0 0 1 2.81116,7.8916 8.0701065,5.7579722 0 0 1 -11.06015,2.006715 8.0701065,5.7579722 0 0 1 -2.81387,-7.89111 l 6.93752,2.941593 z" />
    <path
       id="path72"
       style="fill:#000000;stroke-width:0.264583"
       d="m 309.20605,64.505184 a 24.604364,23.907986 0 0 1 33.7226,-8.324182 24.604364,23.907986 0 0 1 8.57077,32.767137 24.604364,23.907986 0 0 1 -33.72051,8.332188 24.604364,23.907986 0 0 1 -8.57901,-32.7651 l 21.1513,12.213945 z" />
  </g>
</svg>
